<?xml version="1.0" encoding="utf-8"?>

<!DOCTYPE svg PUBLIC "-//W3C//DTD SVG 1.1//EN" "http://www.w3.org/Graphics/SVG/1.1/DTD/svg11.dtd">
<svg version="1.1" id="Layer_1" xmlns:sketch="http://www.bohemiancoding.com/sketch/ns"
	 xmlns="http://www.w3.org/2000/svg" xmlns:xlink="http://www.w3.org/1999/xlink" x="0px" y="0px" viewBox="0 0 612 792"
	 enable-background="new 0 0 612 792" xml:space="preserve">
<title>cart</title>
<desc>savio.ca</desc>
<g>
	<path fill="rgba(232, 126,84, 0.7)" d="M462.2,495.4h-283c-15.8,0-29.5-10.1-33.1-24.5l-40.3-168.5H61.1c-18.7,0-33.8-13.7-33.8-31
		s15.1-31,33.8-31h71.3c15.8,0,29.5,10.1,33.1,24.5l41,168.5h255.6c18.7,0,33.8,13.7,33.8,31C496,481.7,480.9,495.4,462.2,495.4z"/>
</g>
<g>
	<path fill="rgba(232, 126,84, 0.3)" d="M537,318.2H235.4c-18.7,0-33.8-13.7-33.8-31s15.1-31,33.8-31H537c18.7,0,33.8,13.7,33.8,31
		S555.8,318.2,537,318.2z"/>
</g>
<g>
	<path fill="rgba(232, 126,84, 0.5)" d="M491,404.6H235.4c-18.7,0-33.8-13.7-33.8-31s15.1-31,33.8-31H491c18.7,0,33.8,13.7,33.8,31
		C524.8,391,509.7,404.6,491,404.6z"/>
</g>
<ellipse fill="rgba(232, 126,84, 0.9)" cx="208.7" cy="576.7" rx="66.2" ry="60.5"/>
<ellipse fill="rgba(232, 126,84, 0.9)" cx="402.4" cy="576.7" rx="66.2" ry="60.5"/>
<g>
	
	<path fill="rgba(112,128,144, 0.3)" d="M375,290.2c-6.5,0-13-2.2-18-6.5l-71.3-65.5c-10.1-9.4-10.1-23.8,0-33.1c10.1-9.4,25.9-9.4,36,0l53.3,49
		l52.6-48.2c10.1-9.4,25.9-9.4,36,0c10.1,9.4,10.1,23.8,0,33.1L393,283.7C388,288,381.5,290.2,375,290.2z">

			<animateTransform attributeName='transform'
				 attributeType='XML'
				 type='rotate'
				 from='0 0 0'
				 to='25 90 90'
				 dur='3s'
				 repeatCount='indefinite' />





	</path>
</g>
</svg>
