<?xml version="1.0" encoding="utf-8"?>
<!-- Generator: Adobe Illustrator 19.1.0, SVG Export Plug-In . SVG Version: 6.00 Build 0)  -->
<svg version="1.0" id="Слой_1" xmlns="http://www.w3.org/2000/svg" xmlns:xlink="http://www.w3.org/1999/xlink" x="0px" y="0px"
	 viewBox="0 0 1280 5" enable-background="new 0 0 1280 5" xml:space="preserve">
<path fill="#FAE8BE" d="M1280,0c0,0-6,5.5-12.9-0.4v0c0,0-6,6-12.9,0v0c0,0-6,6-12.9,0c0,0-6,6-12.9,0v0c0,0-6,6-12.9,0v0
	c0,0-6,6-12.9,0v0c0,0-6,6-12.9,0c0,0-6,6-12.9,0v0c0,0-6,6-12.9,0v0c0,0-6,6-12.9,0v0c0,0-6,6-12.9,0c0,0-6,6-12.9,0v0
	c0,0-6,6-12.9,0v0c0,0-6,6-12.9,0v0c0,0-6,6-12.9,0c0,0-6,6-12.9,0v0c0,0-6,6-12.9,0v0c0,0-6,6-12.9,0v0c0,0-6,6-12.9,0
	c0,0-6,6-12.9,0v0c0,0-6,6-12.9,0v0c0,0-6,6-12.9,0v0c0,0-6,6-12.9,0c0,0-6,6-12.9,0v0c0,0-6,6-12.9,0v0c0,0-6,6-12.9,0v0
	c0,0-6,6-12.9,0c0,0-6,6-12.9,0v0c0,0-6,6-12.9,0v0c0,0-6,6-12.9,0v0c0,0-6,6-12.9,0c0,0-6,6-12.9,0v0c0,0-6,6-12.9,0v0
	c0,0-6,6-12.9,0v0c0,0-6,6-12.9,0c0,0-6,6-12.9,0v0c0,0-6,6-12.9,0v0c0,0-6,6-12.9,0v0c0,0-6,6-12.9,0c0,0-6,6-12.9,0v0
	c0,0-6,6-12.9,0v0c0,0-6,6-12.9,0v0c0,0-6,6-12.9,0c0,0-6,6-12.9,0v0c0,0-6,6-12.9,0v0c0,0-6,6-12.9,0v0c0,0-6,6-12.9,0
	c0,0-6,6-12.9,0v0c0,0-6,6-12.9,0v0c0,0-6,6-12.9,0v0c0,0-6,6-12.9,0l0.1,0c0,0-6,6-12.9,0v0c0,0-6,6-12.9,0v0c0,0-6,6-12.9,0v0
	c0,0-6,6-12.9,0c0,0-6,6-12.9,0v0c0,0-6,6-12.9,0v0c0,0-6,6-12.9,0v0c0,0-6,6-12.9,0c0,0-6,6-12.9,0v0c0,0-6,6-12.9,0v0
	c0,0-6,6-12.9,0v0c0,0-6,6-12.9,0c0,0-6,6-12.9,0v0c0,0-6,6-12.9,0v0c0,0-6,6-12.9,0v0c0,0-6,6-12.9,0c0,0-6,6-12.9,0v0
	c0,0-6,6-12.9,0v0c0,0-6,6-12.9,0v0c0,0-6,6-12.9,0c0,0-6,6-12.9,0v0c0,0-6,6-12.9,0v0c0,0-6,6-12.9,0v0c0,0-6,6-12.9,0
	c0,0-6,6-12.9,0v0c0,0-6,6-12.9,0v0c0,0-6,6-12.9,0v0c0,0-6,6-12.9,0c0,0-6,6-12.9,0v0c0,0-6,6-12.9,0v0c0,0-6,6-12.9,0v0
	c0,0-6,6-12.9,0c0,0-6,6-12.9,0v0c0,0-6,6-12.9,0v0c0,0-6,6-12.9,0v0c0,0-6,6-12.9,0c0,0-6,6-12.9,0v0c0,0-6,6-12.9,0v0
	c0,0-6,6-12.9,0v0c0,0-6,6-12.9,0c0,0-6,6-12.9,0v0c0,0-6,6-12.9,0l0,0c0,0-6,6-12.9,0v0c0,0-6,6-12.9,0c0,0-6,6-12.9,0v0
	c0,0-6,6-12.9,0v0c0,0-6,6-12.9,0v0C12.9,0.4,7,6,0,0L1280,0z"/>
</svg>
