<?xml version="1.0" encoding="utf-8"?>
<!-- Generator: Adobe Illustrator 19.1.0, SVG Export Plug-In . SVG Version: 6.00 Build 0)  -->
<svg version="1.0" id="Слой_1" xmlns="http://www.w3.org/2000/svg" xmlns:xlink="http://www.w3.org/1999/xlink" x="0px" y="0px"
	 viewBox="0 0 170 155" enable-background="new 0 0 170 155" xml:space="preserve">
<g>
	<path fill="#392825" d="M43,93c1.5,1.4,3,2.7,4.6,4c7.1,5.7,14.5,9.1,19.3,4.3c11-11,14-16.5,21-21s-2.9-15.5-14-8
		c-11,7.5-11,12.5-3.5,17s16,6.5,19.4,11.1c4.1,5.6,11.1-3.6,6.1-6.6s-21-11-31.5,17s24.6,14.8,38.5,11c14.7-4,39-31,25-37
		s-17.3-6.5-20.3,6.5s-3.6,42.5,24.2,36c27.8-6.5,18.9-20.1,14.4-21.1c0,0-10.6-0.8-1.6,6.1c6.6,5-9.2,10.5-13,11
		c0,0-21.5,4.7-21.8-14.8c-0.2-17.2,1.9-18.9,4.3-20.2c2.4-1.2,11.5-1.8,12.8,3c1.7,6.3-9.5,22.2-20.2,26s-16.6,0.8-26,5.8
		c-7.3,3.9-9.5-5.1-9.8-8.6c0,0-0.2-13.3,6.7-18.5c3.5-2.7,10.8-6.5,16.1-0.4c0,0,1.3,1.9-0.5,3.2c-2.1,1.6-9.4-6.1-18-8.8
		c-9.5-3-2.1-9.8,0-11.4c2.4-1.9,14.2-6,7.1,2.6c-6.8,8.2-12.3,15.9-16.1,18.4c-3.6,2.4-9.4,3.4-20.2-9.1"/>
	<linearGradient id="SVGID_1_" gradientUnits="userSpaceOnUse" x1="57.799" y1="33.9529" x2="46.4657" y2="71.2862">
		<stop  offset="0" style="stop-color:#F5F4F3"/>
		<stop  offset="1" style="stop-color:#B17948"/>
	</linearGradient>
	<path fill="url(#SVGID_1_)" stroke="#392825" stroke-width="2" stroke-miterlimit="10" d="M96.6,54.4C89.3,59,83,57.6,74.3,63.6
		c-13.2,9.1-18.2,4.3-29.3,9.1c-3.5,1.5-5.3,4.5-5.4,7.1l-4.3-0.2c-3.5-7.5-3.7-12.6-6.4-23c-4-15.8-11.6-18.1-14-29.5
		c0,0,1-1.5,2.5-2.6s3.4,1,4.2,1.2s3-0.8,5.5-1.6c2.5-0.8,7.4-2.2,8.1-1.4s4.1,1.5,4.1,1.5s3-1.9,4.2-1.7c1.2,0.2,9.6,0,11,1.8
		s3.4,0.8,4.6,2.5c0,0-3.1,18.2-7.1,22.6c0,0,7.9-11.5,10.4-19.5c0.8-2.7,5.6-0.1,4.8,1.9s3.5,1.6,4.4,2.3c0.9,0.7,2.6,0.1,3.9,0.8
		s1.9,2.9,2.4,3.2s3.2,1.8,3.8,2.2s3.9,1.8,5.5,1.8s2.6,2.1,3.4,3s1.1,2.4,2.8,3s3,1.2,3.1,2.1s0.3,3.7,0.3,3.7L96.6,54.4z"/>
	<path fill="#392825" d="M40.6,79.3c-0.2,5.5,5.2,11.2,5.2,11.2L43,93c-5.2-5.4-7.1-9.7-8.9-13.5"/>
	<path fill="none" stroke="#392825" stroke-miterlimit="10" d="M37.6,83.2c0,0-5-9.4-4.6-22.1c0.3-11.8-4.1-22.1-5.4-25.1
		s-2.2-11.3-2.2-11.3"/>
	<path fill="none" stroke="#392825" stroke-miterlimit="10" d="M37.2,81.4c0,0-4.8-12.2-0.5-21.1c3.9-8,2.1-17.5,2-20.5
		c-0.1-4.3,1.5-11.3,0.8-15.6"/>
	<path fill="none" stroke="#392825" stroke-miterlimit="10" d="M37.2,81.4c0,0-3.6-13.2,3.7-23c6.4-8.6,8.6-27.8,9.1-35"/>
	<path fill="none" stroke="#392825" stroke-miterlimit="10" d="M37.8,82.6c0,0-0.2-12.9,5.2-19.2c5.4-6.2,13.6-7.8,16.1-12.4
		S69,38.8,70.3,33.6"/>
	<path fill="none" stroke="#392825" stroke-miterlimit="10" d="M40.1,85.7c0,0-5.6-8.6,4.3-18.2S59.5,62,65.5,54.2
		c5.2-6.7,14.6-9.1,16.1-13.8"/>
	<path fill="none" stroke="#392825" stroke-miterlimit="10" d="M90.8,45.5c-3.9,4.8-8.8,3.7-20,13.1S56.3,64,50.9,66.5
		S35.1,74,40.8,86.7"/>
	<path fill="none" stroke="#392825" stroke-miterlimit="10" d="M38.5,84.8c0,0-5.5-15.7,6.7-27.5c0,0,5.6-6.5,6.7-8.6"/>
	<path fill="none" stroke="#392825" stroke-miterlimit="10" d="M53.1,48.8c0,0-2.2,3.4-7.6,8.2"/>
</g>
</svg>
